# xmcd
#
# Track frame offsets:
#	150
#	16052
#	36002
#	52954
#	68718
#	88432
#	105695
#	123822
#	140590
#	154547
#	180061
#	193980
#	209367
#
# Disc length: 2997 seconds
#
# Revision: 1
# Processed by: cddbd v1.5PL3 Copyright (c) Steve Scherf et al.
# Submitted via: audiograbber 1.83.01
#
DISCID=a80bb30d
DTITLE=Brent Moyer - Global Cowboy
DYEAR=2004
DGENRE=Country
TTITLE0=Wind, Water, Fire and Time
TTITLE1=Bohemia
TTITLE2=Restless
TTITLE3=One Night In June
TTITLE4=Too Cool For Words
TTITLE5=King and Queen Of Tomorrow
TTITLE6=Devil's Right Hand
TTITLE7=Hillbilly Wine
TTITLE8=We Love You Man
TTITLE9=Fresh Water Pirates
TTITLE10=Must Be Paradise
TTITLE11=Next Time
TTITLE12=Blessing In Disguise
EXTD=
EXTT0=
EXTT1=
EXTT2=
EXTT3=
EXTT4=
EXTT5=
EXTT6=
EXTT7=
EXTT8=
EXTT9=
EXTT10=
EXTT11=
EXTT12=
PLAYORDER=
